<svg version="1.1" id="Layer_1" xmlns="http://www.w3.org/2000/svg" xmlns:xlink="http://www.w3.org/1999/xlink" x="0px" y="0px"
	 width="100%" viewBox="0 0 185 75" enable-background="new 0 0 185 75" xml:space="preserve">
<path fill="#FFFEFE" opacity="1.000000" stroke="none" 
	d="
M148.000000,76.000000 
	C98.666687,76.000000 49.833366,76.000000 1.000039,76.000000 
	C1.000026,51.000027 1.000026,26.000053 1.000013,1.000059 
	C62.666615,1.000040 124.333229,1.000040 185.999878,1.000020 
	C185.999924,25.999941 185.999924,50.999882 185.999969,75.999908 
	C173.500000,76.000000 161.000000,76.000000 148.000000,76.000000 
M176.917465,26.111443 
	C177.763718,26.290062 178.609970,26.468683 178.414719,26.427471 
	C177.800064,25.551355 176.833237,24.173239 175.235992,21.896524 
	C175.627960,23.707121 175.786728,24.440468 175.160202,25.026695 
	C174.098343,25.068691 173.036484,25.110689 171.205841,25.292297 
	C171.099686,26.849987 170.993530,28.407677 170.305695,30.120445 
	C169.702957,31.042839 169.100204,31.965235 168.497452,32.887627 
	C168.909348,33.109646 169.321243,33.331661 169.733139,33.553677 
	C170.154495,32.707794 170.575867,31.861912 171.608826,31.158911 
	C173.040970,28.700167 173.991730,30.441063 175.199402,32.178467 
	C178.470810,34.066895 179.028580,31.966711 180.118835,29.201576 
	C178.017807,29.558392 176.771713,29.770018 175.179947,29.513725 
	C175.193817,29.126188 175.207687,28.738649 175.807480,27.991276 
	C175.967133,27.333580 176.126770,26.675886 176.917465,26.111443 
M40.500000,69.000977 
	C49.911018,69.000977 59.322033,69.000977 68.542847,69.000977 
	C68.542847,49.227898 68.542847,30.189356 68.542847,11.272567 
	C49.232483,11.272567 30.316187,11.272567 11.315214,11.272567 
	C11.315214,30.589884 11.315214,49.632259 11.315214,69.000977 
	C20.910563,69.000977 30.205280,69.000977 40.500000,69.000977 
M123.982605,49.395721 
	C123.982605,43.816257 123.982605,38.236797 123.982605,31.724054 
	C121.044014,32.645603 119.044800,33.272560 116.470619,34.079826 
	C111.228195,30.827368 105.865364,31.304966 102.136711,35.912617 
	C98.521271,40.380367 98.556557,48.334068 102.210869,52.628300 
	C105.907211,56.971924 112.130798,57.375668 116.098099,54.732670 
	C119.492683,55.390217 121.518501,55.782627 123.982796,56.259972 
	C123.982796,53.651787 123.982796,52.004566 123.982605,49.395721 
M150.851196,43.882366 
	C150.788025,40.069149 152.138657,37.139893 156.364471,37.100143 
	C160.797165,37.058453 161.678024,40.404247 161.763184,43.989285 
	C161.856506,47.917965 161.784439,51.850578 161.784439,56.075325 
	C164.200073,55.942879 165.917542,55.848717 167.806976,55.745121 
	C167.806976,50.914082 168.008926,46.589821 167.759216,42.291801 
	C167.393097,35.990082 163.887970,32.159225 158.313843,32.110725 
	C155.940933,32.090080 153.559296,33.071732 150.767639,33.689510 
	C150.767639,30.795433 150.767639,27.874262 150.767639,24.741421 
	C148.604202,24.741421 146.879959,24.741421 145.124451,24.741421 
	C145.124451,35.305386 145.124451,45.536991 145.124451,56.054699 
	C147.194778,55.942635 148.910614,55.849758 150.847733,55.744904 
	C150.847733,51.752388 150.847733,48.272266 150.851196,43.882366 
M88.834435,26.156748 
	C84.398270,26.156748 79.962105,26.156748 75.487457,26.156748 
	C75.487457,36.323875 75.487457,46.051193 75.487457,55.632542 
	C77.579529,55.632542 79.309349,55.632542 81.489479,55.632542 
	C81.489479,52.328648 81.489479,49.408604 81.489479,46.550339 
	C93.844917,45.296501 96.551392,43.692223 97.219215,37.452732 
	C97.845795,31.598606 95.752449,28.512596 88.834435,26.156748 
M130.035721,40.821209 
	C130.036102,42.812969 130.010635,44.805130 130.041458,46.796417 
	C130.161057,54.525597 133.198578,56.895340 141.174728,55.410488 
	C141.421432,53.185112 142.389389,50.783199 138.468018,50.577461 
	C137.623672,50.533161 136.323410,48.583366 136.201935,47.410938 
	C135.881592,44.319046 136.093536,41.172009 136.093536,38.056404 
	C138.020615,37.684315 139.578110,37.383587 141.301666,37.050793 
	C141.232559,35.496204 141.175797,34.219151 141.111237,32.766880 
	C139.359665,32.485718 137.814926,32.237755 136.208939,31.979965 
	C136.105148,29.899109 136.016769,28.127047 135.923172,26.250471 
	C133.856506,26.250471 132.123474,26.250471 131.581482,26.250471 
	C129.956940,28.981602 128.448166,30.878006 127.690033,33.037888 
	C127.250542,34.289989 127.856239,36.016788 128.300797,37.432892 
	C128.589844,38.353657 129.435593,39.099663 130.035721,40.821209 
z"/>
<path fill="#FA4718" opacity="1.000000" stroke="none" 
	d="
M40.000000,69.000977 
	C30.205280,69.000977 20.910563,69.000977 11.315214,69.000977 
	C11.315214,49.632259 11.315214,30.589884 11.315214,11.272567 
	C30.316187,11.272567 49.232483,11.272567 68.542847,11.272567 
	C68.542847,30.189356 68.542847,49.227898 68.542847,69.000977 
	C59.322033,69.000977 49.911018,69.000977 40.000000,69.000977 
M62.943306,45.498627 
	C62.943306,36.077942 62.943306,26.657253 62.943306,17.385397 
	C47.212391,17.385397 32.166000,17.385397 17.236557,17.385397 
	C17.236557,32.709648 17.236557,47.643684 17.236557,62.698158 
	C32.521111,62.698158 47.563755,62.698158 62.943295,62.698158 
	C62.943295,57.098236 62.943295,51.798084 62.943306,45.498627 
z"/>
<path fill="#FA4E20" opacity="1.000000" stroke="none" 
	d="
M123.982697,49.876534 
	C123.982796,52.004566 123.982796,53.651787 123.982796,56.259972 
	C121.518501,55.782627 119.492683,55.390217 116.098099,54.732670 
	C112.130798,57.375668 105.907211,56.971924 102.210869,52.628300 
	C98.556557,48.334068 98.521271,40.380367 102.136711,35.912617 
	C105.865364,31.304966 111.228195,30.827368 116.470619,34.079826 
	C119.044800,33.272560 121.044014,32.645603 123.982605,31.724054 
	C123.982605,38.236797 123.982605,43.816257 123.982697,49.876534 
M109.281723,37.776161 
	C105.497757,40.630390 104.422562,45.044170 106.803192,48.436176 
	C109.021629,51.597061 111.990906,51.774719 115.084183,49.958282 
	C118.092690,48.191616 119.222603,43.145771 116.690750,40.333447 
	C115.210114,38.688774 112.265976,38.361633 109.281723,37.776161 
z"/>
<path fill="#FA4F21" opacity="1.000000" stroke="none" 
	d="
M150.849457,44.337254 
	C150.847733,48.272266 150.847733,51.752388 150.847733,55.744904 
	C148.910614,55.849758 147.194778,55.942635 145.124451,56.054699 
	C145.124451,45.536991 145.124451,35.305386 145.124451,24.741421 
	C146.879959,24.741421 148.604202,24.741421 150.767639,24.741421 
	C150.767639,27.874262 150.767639,30.795433 150.767639,33.689510 
	C153.559296,33.071732 155.940933,32.090080 158.313843,32.110725 
	C163.887970,32.159225 167.393097,35.990082 167.759216,42.291801 
	C168.008926,46.589821 167.806976,50.914082 167.806976,55.745121 
	C165.917542,55.848717 164.200073,55.942879 161.784439,56.075325 
	C161.784439,51.850578 161.856506,47.917965 161.763184,43.989285 
	C161.678024,40.404247 160.797165,37.058453 156.364471,37.100143 
	C152.138657,37.139893 150.788025,40.069149 150.849457,44.337254 
z"/>
<path fill="#FA4D1F" opacity="1.000000" stroke="none" 
	d="
M89.253334,26.241863 
	C95.752449,28.512596 97.845795,31.598606 97.219215,37.452732 
	C96.551392,43.692223 93.844917,45.296501 81.489479,46.550339 
	C81.489479,49.408604 81.489479,52.328648 81.489479,55.632542 
	C79.309349,55.632542 77.579529,55.632542 75.487457,55.632542 
	C75.487457,46.051193 75.487457,36.323875 75.487457,26.156748 
	C79.962105,26.156748 84.398270,26.156748 89.253334,26.241863 
M91.129875,37.197613 
	C90.674088,31.064753 89.217300,30.158327 81.423347,31.345568 
	C81.423347,34.536663 81.423347,37.763725 81.423347,41.229660 
	C85.309258,41.596775 89.023148,42.530876 91.129875,37.197613 
z"/>
<path fill="#FA4E20" opacity="1.000000" stroke="none" 
	d="
M130.033813,40.372589 
	C129.435593,39.099663 128.589844,38.353657 128.300797,37.432892 
	C127.856239,36.016788 127.250542,34.289989 127.690033,33.037888 
	C128.448166,30.878006 129.956940,28.981602 131.581482,26.250471 
	C132.123474,26.250471 133.856506,26.250471 135.923172,26.250471 
	C136.016769,28.127047 136.105148,29.899109 136.208939,31.979965 
	C137.814926,32.237755 139.359665,32.485718 141.111237,32.766880 
	C141.175797,34.219151 141.232559,35.496204 141.301666,37.050793 
	C139.578110,37.383587 138.020615,37.684315 136.093536,38.056404 
	C136.093536,41.172009 135.881592,44.319046 136.201935,47.410938 
	C136.323410,48.583366 137.623672,50.533161 138.468018,50.577461 
	C142.389389,50.783199 141.421432,53.185112 141.174728,55.410488 
	C133.198578,56.895340 130.161057,54.525597 130.041458,46.796417 
	C130.010635,44.805130 130.036102,42.812969 130.033813,40.372589 
z"/>
<path fill="#FFF0EC" opacity="1.000000" stroke="none" 
	d="
M175.525620,29.981640 
	C176.771713,29.770018 178.017807,29.558392 180.118835,29.201576 
	C179.028580,31.966711 178.470810,34.066895 175.299408,31.492756 
	C175.441498,30.531908 175.483551,30.256773 175.525620,29.981640 
z"/>
<path fill="#FA491A" opacity="1.000000" stroke="none" 
	d="
M175.352783,29.747683 
	C175.483551,30.256773 175.441498,30.531908 175.207214,31.178192 
	C173.991730,30.441063 173.040970,28.700167 171.320007,30.820152 
	C170.983246,30.309385 170.935303,30.137377 170.887360,29.965366 
	C170.993530,28.407677 171.099686,26.849987 171.629364,25.499201 
	C172.093826,25.887863 172.134781,26.069622 172.189789,26.563488 
	C173.135101,26.914762 174.066360,26.953930 175.003677,27.340836 
	C175.080322,27.909418 175.150940,28.130266 175.221558,28.351112 
	C175.207687,28.738649 175.193817,29.126188 175.352783,29.747683 
z"/>
<path fill="#FFF0EC" opacity="1.000000" stroke="none" 
	d="
M175.945496,25.173817 
	C175.786728,24.440468 175.627960,23.707121 175.235992,21.896524 
	C176.833237,24.173239 177.800064,25.551355 178.414719,26.427471 
	C178.609970,26.468683 177.763718,26.290062 176.471893,25.871780 
	C176.026306,25.632120 175.945480,25.173817 175.945496,25.173817 
z"/>
<path fill="#FED3C8" opacity="1.000000" stroke="none" 
	d="
M170.596527,30.042906 
	C170.935303,30.137377 170.983246,30.309385 171.014191,30.748711 
	C170.575867,31.861912 170.154495,32.707794 169.733139,33.553677 
	C169.321243,33.331661 168.909348,33.109646 168.497452,32.887627 
	C169.100204,31.965235 169.702957,31.042839 170.596527,30.042906 
z"/>
<path fill="#FB6740" opacity="1.000000" stroke="none" 
	d="
M175.552841,25.100256 
	C175.945480,25.173817 176.026306,25.632120 176.156372,25.825157 
	C176.126770,26.675886 175.967133,27.333580 175.514526,28.171194 
	C175.150940,28.130266 175.080322,27.909418 174.837036,27.056194 
	C173.834808,26.366339 173.005280,26.308861 172.175751,26.251383 
	C172.134781,26.069622 172.093826,25.887863 172.013748,25.429396 
	C173.036484,25.110689 174.098343,25.068691 175.552841,25.100256 
z"/>
<path fill="#FFFCFB" opacity="1.000000" stroke="none" 
	d="
M62.943298,45.998280 
	C62.943295,51.798084 62.943295,57.098236 62.943295,62.698158 
	C47.563755,62.698158 32.521111,62.698158 17.236557,62.698158 
	C17.236557,47.643684 17.236557,32.709648 17.236557,17.385397 
	C32.166000,17.385397 47.212391,17.385397 62.943306,17.385397 
	C62.943306,26.657253 62.943306,36.077942 62.943298,45.998280 
M35.310993,50.342445 
	C29.752876,49.971714 28.306137,48.609730 28.176388,43.066608 
	C28.045282,37.465462 28.147491,31.858854 28.147491,25.945814 
	C25.790771,26.066757 24.075642,26.154774 22.532581,26.233961 
	C22.532581,33.387688 22.007166,40.073616 22.679064,46.636971 
	C23.362940,53.317375 27.752775,56.330952 34.501606,56.126831 
	C40.813137,55.935936 45.480793,52.050316 45.881851,45.791180 
	C46.293705,39.363533 45.973206,32.888962 45.973206,26.256258 
	C43.917580,26.256258 42.195057,26.256258 40.053375,26.256258 
	C40.053375,32.140621 40.430145,37.806480 39.874771,43.379448 
	C39.640530,45.730000 37.441105,47.884708 35.310993,50.342445 
M50.914772,35.845753 
	C50.914772,42.420219 50.914772,48.994686 50.914772,55.758049 
	C53.075188,55.758049 54.789379,55.758049 56.686020,55.758049 
	C56.686020,47.990799 56.686020,40.475109 56.686020,31.008375 
	C54.098919,32.769039 52.508106,33.851673 50.914772,35.845753 
M57.415035,25.616306 
	C55.909492,24.533815 54.507099,23.149660 52.827763,22.575430 
	C52.393848,22.427053 50.530331,24.754026 50.375065,26.068172 
	C50.262917,27.017366 52.185169,29.194077 52.689095,29.048948 
	C54.389687,28.559187 55.862213,27.277498 57.415035,25.616306 
z"/>
<path fill="#FFF8F7" opacity="1.000000" stroke="none" 
	d="
M109.630974,37.608971 
	C112.265976,38.361633 115.210114,38.688774 116.690750,40.333447 
	C119.222603,43.145771 118.092690,48.191616 115.084183,49.958282 
	C111.990906,51.774719 109.021629,51.597061 106.803192,48.436176 
	C104.422562,45.044170 105.497757,40.630390 109.630974,37.608971 
z"/>
<path fill="#FFF4F2" opacity="1.000000" stroke="none" 
	d="
M91.061615,37.606621 
	C89.023148,42.530876 85.309258,41.596775 81.423347,41.229660 
	C81.423347,37.763725 81.423347,34.536663 81.423347,31.345568 
	C89.217300,30.158327 90.674088,31.064753 91.061615,37.606621 
z"/>
<path fill="#FED9CF" opacity="1.000000" stroke="none" 
	d="
M172.189789,26.563488 
	C173.005280,26.308861 173.834808,26.366339 174.830994,26.708458 
	C174.066360,26.953930 173.135101,26.914762 172.189789,26.563488 
z"/>
<path fill="#FA4D1F" opacity="1.000000" stroke="none" 
	d="
M35.722984,50.235443 
	C37.441105,47.884708 39.640530,45.730000 39.874771,43.379448 
	C40.430145,37.806480 40.053375,32.140621 40.053375,26.256258 
	C42.195057,26.256258 43.917580,26.256258 45.973206,26.256258 
	C45.973206,32.888962 46.293705,39.363533 45.881851,45.791180 
	C45.480793,52.050316 40.813137,55.935936 34.501606,56.126831 
	C27.752775,56.330952 23.362940,53.317375 22.679064,46.636971 
	C22.007166,40.073616 22.532581,33.387688 22.532581,26.233961 
	C24.075642,26.154774 25.790771,26.066757 28.147491,25.945814 
	C28.147491,31.858854 28.045282,37.465462 28.176388,43.066608 
	C28.306137,48.609730 29.752876,49.971714 35.722984,50.235443 
z"/>
<path fill="#FA4D1F" opacity="1.000000" stroke="none" 
	d="
M50.916031,35.390030 
	C52.508106,33.851673 54.098919,32.769039 56.686020,31.008375 
	C56.686020,40.475109 56.686020,47.990799 56.686020,55.758049 
	C54.789379,55.758049 53.075188,55.758049 50.914772,55.758049 
	C50.914772,48.994686 50.914772,42.420219 50.916031,35.390030 
z"/>
<path fill="#FA5428" opacity="1.000000" stroke="none" 
	d="
M57.418495,25.957466 
	C55.862213,27.277498 54.389687,28.559187 52.689095,29.048948 
	C52.185169,29.194077 50.262917,27.017366 50.375065,26.068172 
	C50.530331,24.754026 52.393848,22.427053 52.827763,22.575430 
	C54.507099,23.149660 55.909492,24.533815 57.418495,25.957466 
z"/>
</svg>