<svg version="1.1" id="Layer_1" xmlns="http://www.w3.org/2000/svg" xmlns:xlink="http://www.w3.org/1999/xlink" x="0px" y="0px"
	 width="100%" viewBox="0 0 190 187" enable-background="new 0 0 190 187" xml:space="preserve">
<path fill="#FA4819" opacity="1.000000" stroke="none" 
	d="
M190.000000,188.000000 
	C127.645775,188.000000 65.291542,188.000000 2.466952,187.531342 
	C1.997726,125.041786 1.998863,63.020893 2.000000,1.000000 
	C64.354225,1.000000 126.708458,1.000000 189.488556,1.466960 
	C189.942963,63.955948 189.971481,125.977974 190.000000,188.000000 
M170.159576,70.500061 
	C170.159576,53.931522 170.159576,37.362988 170.159576,20.751381 
	C119.989647,20.751381 70.591759,20.751381 21.101246,20.751381 
	C21.101246,70.298637 21.101246,119.526367 21.101246,168.795715 
	C70.903107,168.795715 120.415665,168.795715 170.159576,168.795715 
	C170.159576,136.106323 170.159576,103.803200 170.159576,70.500061 
z"/>
<path fill="#FA562D" opacity="1.000000" stroke="none" 
	d="
M1.500000,1.000000 
	C1.998863,63.020893 1.997726,125.041786 1.998293,187.531342 
	C1.666664,186.671082 1.042791,185.342407 1.041744,184.013229 
	C0.993670,123.008850 1.000000,62.004421 1.500000,1.000000 
z"/>
<path fill="#FFFFFF" opacity="1.000000" stroke="none" 
	d="
M190.500000,188.000000 
	C189.971481,125.977974 189.942963,63.955948 189.957214,1.466960 
	C190.333328,2.333333 190.957184,3.666437 190.958237,5.000032 
	C191.006348,65.999992 191.000000,127.000000 190.500000,188.000000 
z"/>
<path fill="#FFFDFD" opacity="1.000000" stroke="none" 
	d="
M170.159576,71.000069 
	C170.159576,103.803200 170.159576,136.106323 170.159576,168.795715 
	C120.415665,168.795715 70.903107,168.795715 21.101246,168.795715 
	C21.101246,119.526367 21.101246,70.298637 21.101246,20.751381 
	C70.591759,20.751381 119.989647,20.751381 170.159576,20.751381 
	C170.159576,37.362988 170.159576,53.931522 170.159576,71.000069 
M38.317726,115.852417 
	C40.029930,125.676147 43.818962,134.356781 52.107872,140.476608 
	C76.848862,158.743271 112.659172,143.703400 114.984581,113.215157 
	C116.575836,92.352142 115.499619,71.285530 115.586159,50.309814 
	C115.587166,50.065556 115.190796,49.819649 115.043190,49.648060 
	C108.733620,49.648060 102.500252,49.648060 96.038872,49.648060 
	C96.038872,61.534626 96.056389,73.020538 96.033134,84.506363 
	C96.015594,93.167519 96.329559,101.851830 95.806107,110.484001 
	C95.087410,122.336006 88.488411,128.779572 77.726013,129.068405 
	C65.836029,129.387497 59.378349,123.776283 57.677841,111.531425 
	C57.358604,109.232719 57.256573,106.887985 57.251488,104.564064 
	C57.216137,88.405380 57.232826,72.246582 57.232826,56.087822 
	C57.232826,53.976650 57.232826,51.865479 57.232826,49.657150 
	C50.427280,49.657150 44.230801,49.657150 38.185265,49.657150 
	C38.185265,71.701759 38.185265,93.334099 38.317726,115.852417 
M131.035355,145.046631 
	C131.410202,145.534729 131.778900,146.442581 132.160812,146.448166 
	C138.246613,146.537247 144.334091,146.510910 150.392746,146.510910 
	C150.392746,120.779984 150.392746,95.623032 150.392746,70.509094 
	C143.765961,70.509094 137.536972,70.509094 131.011780,70.509094 
	C131.011780,95.284164 131.011780,119.700920 131.035355,145.046631 
M139.805725,37.489429 
	C132.042755,39.023846 128.429321,43.291492 128.887848,50.383930 
	C129.279678,56.444298 133.684875,60.670387 139.978012,61.023129 
	C146.955856,61.414249 152.177628,57.182816 152.839981,50.600536 
	C153.578766,43.258602 149.080612,38.428246 139.805725,37.489429 
z"/>
<path fill="#FA491A" opacity="1.000000" stroke="none" 
	d="
M38.251495,115.409424 
	C38.185265,93.334099 38.185265,71.701759 38.185265,49.657150 
	C44.230801,49.657150 50.427280,49.657150 57.232826,49.657150 
	C57.232826,51.865479 57.232826,53.976650 57.232826,56.087822 
	C57.232826,72.246582 57.216137,88.405380 57.251488,104.564064 
	C57.256573,106.887985 57.358604,109.232719 57.677841,111.531425 
	C59.378349,123.776283 65.836029,129.387497 77.726013,129.068405 
	C88.488411,128.779572 95.087410,122.336006 95.806107,110.484001 
	C96.329559,101.851830 96.015594,93.167519 96.033134,84.506363 
	C96.056389,73.020538 96.038872,61.534626 96.038872,49.648060 
	C102.500252,49.648060 108.733620,49.648060 115.043190,49.648060 
	C115.190796,49.819649 115.587166,50.065556 115.586159,50.309814 
	C115.499619,71.285530 116.575836,92.352142 114.984581,113.215157 
	C112.659172,143.703400 76.848862,158.743271 52.107872,140.476608 
	C43.818962,134.356781 40.029930,125.676147 38.251495,115.409424 
z"/>
<path fill="#FA4C1D" opacity="1.000000" stroke="none" 
	d="
M131.023560,144.582153 
	C131.011780,119.700920 131.011780,95.284164 131.011780,70.509094 
	C137.536972,70.509094 143.765961,70.509094 150.392746,70.509094 
	C150.392746,95.623032 150.392746,120.779984 150.392746,146.510910 
	C144.334091,146.510910 138.246613,146.537247 132.160812,146.448166 
	C131.778900,146.442581 131.410202,145.534729 131.023560,144.582153 
z"/>
<path fill="#FA4B1C" opacity="1.000000" stroke="none" 
	d="
M140.193268,37.462700 
	C149.080612,38.428246 153.578766,43.258602 152.839981,50.600536 
	C152.177628,57.182816 146.955856,61.414249 139.978012,61.023129 
	C133.684875,60.670387 129.279678,56.444298 128.887848,50.383930 
	C128.429321,43.291492 132.042755,39.023846 140.193268,37.462700 
z"/>
</svg>